<svg width="69" height="79" viewBox="0 0 69 79" fill="none" xmlns="http://www.w3.org/2000/svg">
<path d="M60.3141 15.5133C60.26 15.118 59.9153 14.8996 59.6303 14.8756C59.346 14.8516 53.3278 14.404 53.3278 14.404C53.3278 14.404 49.1482 10.2389 48.6896 9.77796C48.2305 9.31706 47.3342 9.45722 46.9863 9.56013C46.9348 9.57529 46.073 9.84236 44.6471 10.2849C43.2507 6.25241 40.787 2.5463 36.452 2.5463C36.3325 2.5463 36.2092 2.55135 36.0859 2.55829C34.8531 0.921794 33.3259 0.210876 32.0069 0.210876C21.909 0.210876 17.0846 12.8817 15.5719 19.321C11.6483 20.5415 8.86057 21.409 8.50456 21.5214C6.3144 22.2108 6.24521 22.2803 5.95776 24.3518C5.74076 25.9201 0.0100098 70.4061 0.0100098 70.4061L44.6653 78.8045L68.8614 73.5503C68.8614 73.5503 60.3675 15.9085 60.3141 15.5133ZM42.1789 11.0514C41.0574 11.3999 39.7825 11.7958 38.4006 12.2251C38.4018 11.9581 38.4031 11.6948 38.4031 11.4075C38.4031 8.90099 38.0565 6.88315 37.5005 5.28327C39.734 5.56486 41.2216 8.11557 42.1789 11.0514ZM34.7298 5.78015C35.3506 7.34215 35.7544 9.5835 35.7544 12.6084C35.7544 12.7631 35.7531 12.9045 35.7519 13.0478C33.2944 13.8118 30.6243 14.6414 27.948 15.4735C29.4506 9.65231 32.2673 6.84084 34.7298 5.78015ZM31.7295 2.92954C32.1654 2.92954 32.6044 3.07791 33.0246 3.36833C29.7884 4.89687 26.3195 8.74694 24.8546 16.4351C22.7135 17.1005 20.6208 17.7508 18.6861 18.3525C20.402 12.4884 24.4766 2.92954 31.7295 2.92954Z" fill="#95BF46"/>
<path d="M59.6304 14.8756C59.3461 14.8516 53.3279 14.404 53.3279 14.404C53.3279 14.404 49.1483 10.2389 48.6897 9.77796C48.518 9.60623 48.2866 9.51847 48.0444 9.48059L44.668 78.8039L68.8615 73.5503C68.8615 73.5503 60.3676 15.9085 60.3142 15.5133C60.2601 15.1181 59.9154 14.8996 59.6304 14.8756Z" fill="#5E8E3E"/>
<path d="M36.4521 28.2953L33.4688 37.2032C33.4688 37.2032 30.8547 35.8029 27.6506 35.8029C22.9533 35.8029 22.7168 38.7621 22.7168 39.5077C22.7168 43.5762 33.2826 45.1351 33.2826 54.6649C33.2826 62.1624 28.545 66.9904 22.1569 66.9904C14.4914 66.9904 10.5715 62.2015 10.5715 62.2015L12.6239 55.3948C12.6239 55.3948 16.6533 58.8673 20.0536 58.8673C22.2752 58.8673 23.1791 57.1114 23.1791 55.8285C23.1791 50.5212 14.5109 50.2845 14.5109 41.5641C14.5109 34.2244 19.7592 27.1216 30.3534 27.1216C34.4355 27.1216 36.4521 28.2953 36.4521 28.2953Z" fill="white"/>
</svg>
